<svg width="70" height="75" viewBox="0 0 70 75" fill="none" xmlns="http://www.w3.org/2000/svg">
<path d="M12.9115 67.2439V60.0799H10.4635V58.8439H16.9075V60.0799H14.4475V67.2439H12.9115ZM20.9047 67.2439V58.8439H22.7287L25.4047 64.1719L28.0447 58.8439H29.8687V67.2439H28.3327V61.4479L25.9927 66.0439H24.7807L22.4407 61.4479V67.2439H20.9047ZM34.3184 67.3879C33.7424 67.3879 33.2224 67.2559 32.7584 66.9919C32.3024 66.7279 31.9384 66.3639 31.6664 65.8999C31.4024 65.4279 31.2704 64.8839 31.2704 64.2679C31.2704 63.6519 31.4064 63.1119 31.6784 62.6479C31.9504 62.1759 32.3144 61.8079 32.7704 61.5439C33.2344 61.2799 33.7544 61.1479 34.3304 61.1479C34.8984 61.1479 35.4104 61.2799 35.8664 61.5439C36.3304 61.8079 36.6944 62.1759 36.9584 62.6479C37.2304 63.1119 37.3664 63.6519 37.3664 64.2679C37.3664 64.8839 37.2304 65.4279 36.9584 65.8999C36.6944 66.3639 36.3304 66.7279 35.8664 66.9919C35.4024 67.2559 34.8864 67.3879 34.3184 67.3879ZM34.3184 66.0559C34.7184 66.0559 35.0664 65.9079 35.3624 65.6119C35.6584 65.3079 35.8064 64.8599 35.8064 64.2679C35.8064 63.6759 35.6584 63.2319 35.3624 62.9359C35.0664 62.6319 34.7224 62.4799 34.3304 62.4799C33.9224 62.4799 33.5704 62.6319 33.2744 62.9359C32.9864 63.2319 32.8424 63.6759 32.8424 64.2679C32.8424 64.8599 32.9864 65.3079 33.2744 65.6119C33.5704 65.9079 33.9184 66.0559 34.3184 66.0559ZM42.2678 67.3879C41.8198 67.3879 41.4278 67.3039 41.0918 67.1359C40.7558 66.9679 40.4838 66.7319 40.2758 66.4279L40.1078 67.2439H38.7398V58.6039H40.2758V62.1439C40.4678 61.8799 40.7198 61.6479 41.0318 61.4479C41.3518 61.2479 41.7638 61.1479 42.2678 61.1479C42.8278 61.1479 43.3278 61.2839 43.7678 61.5559C44.2078 61.8279 44.5558 62.1999 44.8118 62.6719C45.0678 63.1439 45.1958 63.6799 45.1958 64.2799C45.1958 64.8799 45.0678 65.4159 44.8118 65.8879C44.5558 66.3519 44.2078 66.7199 43.7678 66.9919C43.3278 67.2559 42.8278 67.3879 42.2678 67.3879ZM41.9438 66.0439C42.4318 66.0439 42.8358 65.8799 43.1558 65.5519C43.4758 65.2239 43.6358 64.7999 43.6358 64.2799C43.6358 63.7599 43.4758 63.3319 43.1558 62.9959C42.8358 62.6599 42.4318 62.4919 41.9438 62.4919C41.4478 62.4919 41.0398 62.6599 40.7198 62.9959C40.4078 63.3239 40.2518 63.7479 40.2518 64.2679C40.2518 64.7879 40.4078 65.2159 40.7198 65.5519C41.0398 65.8799 41.4478 66.0439 41.9438 66.0439ZM47.3959 60.3679C47.1159 60.3679 46.8839 60.2839 46.6999 60.1159C46.5239 59.9479 46.4359 59.7359 46.4359 59.4799C46.4359 59.2239 46.5239 59.0159 46.6999 58.8559C46.8839 58.6879 47.1159 58.6039 47.3959 58.6039C47.6759 58.6039 47.9039 58.6879 48.0799 58.8559C48.2639 59.0159 48.3559 59.2239 48.3559 59.4799C48.3559 59.7359 48.2639 59.9479 48.0799 60.1159C47.9039 60.2839 47.6759 60.3679 47.3959 60.3679ZM46.6279 67.2439V61.2919H48.1639V67.2439H46.6279ZM49.7671 67.2439V58.6039H51.3031V67.2439H49.7671ZM55.7646 67.3879C55.1646 67.3879 54.6326 67.2599 54.1686 67.0039C53.7046 66.7479 53.3406 66.3879 53.0766 65.9239C52.8126 65.4599 52.6806 64.9239 52.6806 64.3159C52.6806 63.6999 52.8086 63.1519 53.0646 62.6719C53.3286 62.1919 53.6886 61.8199 54.1446 61.5559C54.6086 61.2839 55.1526 61.1479 55.7766 61.1479C56.3606 61.1479 56.8766 61.2759 57.3246 61.5319C57.7726 61.7879 58.1206 62.1399 58.3686 62.5879C58.6246 63.0279 58.7526 63.5199 58.7526 64.0639C58.7526 64.1519 58.7486 64.2439 58.7406 64.3399C58.7406 64.4359 58.7366 64.5359 58.7286 64.6399H54.2046C54.2366 65.1039 54.3966 65.4679 54.6846 65.7319C54.9806 65.9959 55.3366 66.1279 55.7526 66.1279C56.0646 66.1279 56.3246 66.0599 56.5326 65.9239C56.7486 65.7799 56.9086 65.5959 57.0126 65.3719H58.5726C58.4606 65.7479 58.2726 66.0919 58.0086 66.4039C57.7526 66.7079 57.4326 66.9479 57.0486 67.1239C56.6726 67.2999 56.2446 67.3879 55.7646 67.3879ZM55.7766 62.3959C55.4006 62.3959 55.0686 62.5039 54.7806 62.7199C54.4926 62.9279 54.3086 63.2479 54.2286 63.6799H57.1926C57.1686 63.2879 57.0246 62.9759 56.7606 62.7439C56.4966 62.5119 56.1686 62.3959 55.7766 62.3959Z" fill="white"/>
<path d="M37.4547 2.95542H38.6777C46.592 2.95542 50.277 7.09418 51.8142 18.1335L54.2683 18.0256L53.9383 0.518799H13.6833L13.2883 18.0256L15.6425 18.1335C16.0549 13.9948 16.5435 11.7628 17.6095 9.5419C19.4862 5.40314 23.4013 2.95542 28.2253 2.95542H29.937V41.053C29.937 45.0839 29.6974 46.3577 28.7139 47.3158C27.8954 48.0598 26.2694 48.3739 24.3848 48.3739H22.5082V50.9184H44.8819V48.3739H42.9989C41.1318 48.3739 39.4883 48.0614 38.6777 47.3158C37.7021 46.3577 37.4547 45.0839 37.4547 41.053V2.95542ZM12.6602 23.5207H22.9793V33.824H12.6602V23.5207ZM44.2474 23.5207H54.5649V33.824H44.2474V23.5207Z" fill="#E3FDE6"/>
</svg>
