<svg width="70" height="76" viewBox="0 0 70 76" fill="none" xmlns="http://www.w3.org/2000/svg">
<path d="M10.9022 67.9785L7.83022 59.5785H9.47422L11.8502 66.4065L14.2382 59.5785H15.8582L12.7862 67.9785H10.9022ZM18.962 68.1225C18.386 68.1225 17.866 67.9905 17.402 67.7265C16.946 67.4625 16.582 67.0985 16.31 66.6345C16.046 66.1625 15.914 65.6185 15.914 65.0025C15.914 64.3865 16.05 63.8465 16.322 63.3825C16.594 62.9105 16.958 62.5425 17.414 62.2785C17.878 62.0145 18.398 61.8825 18.974 61.8825C19.542 61.8825 20.054 62.0145 20.51 62.2785C20.974 62.5425 21.338 62.9105 21.602 63.3825C21.874 63.8465 22.01 64.3865 22.01 65.0025C22.01 65.6185 21.874 66.1625 21.602 66.6345C21.338 67.0985 20.974 67.4625 20.51 67.7265C20.046 67.9905 19.53 68.1225 18.962 68.1225ZM18.962 66.7905C19.362 66.7905 19.71 66.6425 20.006 66.3465C20.302 66.0425 20.45 65.5945 20.45 65.0025C20.45 64.4105 20.302 63.9665 20.006 63.6705C19.71 63.3665 19.366 63.2145 18.974 63.2145C18.566 63.2145 18.214 63.3665 17.918 63.6705C17.63 63.9665 17.486 64.4105 17.486 65.0025C17.486 65.5945 17.63 66.0425 17.918 66.3465C18.214 66.6425 18.562 66.7905 18.962 66.7905ZM26.1193 68.1225C25.5593 68.1225 25.0593 67.9865 24.6193 67.7145C24.1793 67.4425 23.8313 67.0705 23.5753 66.5985C23.3193 66.1265 23.1913 65.5905 23.1913 64.9905C23.1913 64.3905 23.3193 63.8585 23.5753 63.3945C23.8313 62.9225 24.1793 62.5545 24.6193 62.2905C25.0593 62.0185 25.5593 61.8825 26.1193 61.8825C26.5673 61.8825 26.9593 61.9665 27.2953 62.1345C27.6313 62.3025 27.9033 62.5385 28.1113 62.8425V59.3385H29.6473V67.9785H28.2793L28.1113 67.1265C27.9193 67.3905 27.6633 67.6225 27.3433 67.8225C27.0313 68.0225 26.6233 68.1225 26.1193 68.1225ZM26.4433 66.7785C26.9393 66.7785 27.3433 66.6145 27.6553 66.2865C27.9753 65.9505 28.1353 65.5225 28.1353 65.0025C28.1353 64.4825 27.9753 64.0585 27.6553 63.7305C27.3433 63.3945 26.9393 63.2265 26.4433 63.2265C25.9553 63.2265 25.5513 63.3905 25.2313 63.7185C24.9113 64.0465 24.7513 64.4705 24.7513 64.9905C24.7513 65.5105 24.9113 65.9385 25.2313 66.2745C25.5513 66.6105 25.9553 66.7785 26.4433 66.7785ZM33.2635 68.1225C32.7515 68.1225 32.3315 68.0425 32.0035 67.8825C31.6755 67.7145 31.4315 67.4945 31.2715 67.2225C31.1115 66.9505 31.0315 66.6505 31.0315 66.3225C31.0315 65.7705 31.2475 65.3225 31.6795 64.9785C32.1115 64.6345 32.7595 64.4625 33.6235 64.4625H35.1355V64.3185C35.1355 63.9105 35.0195 63.6105 34.7875 63.4185C34.5555 63.2265 34.2675 63.1305 33.9235 63.1305C33.6115 63.1305 33.3395 63.2065 33.1075 63.3585C32.8755 63.5025 32.7315 63.7185 32.6755 64.0065H31.1755C31.2155 63.5745 31.3595 63.1985 31.6075 62.8785C31.8635 62.5585 32.1915 62.3145 32.5915 62.1465C32.9915 61.9705 33.4395 61.8825 33.9355 61.8825C34.7835 61.8825 35.4515 62.0945 35.9395 62.5185C36.4275 62.9425 36.6715 63.5425 36.6715 64.3185V67.9785H35.3635L35.2195 67.0185C35.0435 67.3385 34.7955 67.6025 34.4755 67.8105C34.1635 68.0185 33.7595 68.1225 33.2635 68.1225ZM33.6115 66.9225C34.0515 66.9225 34.3915 66.7785 34.6315 66.4905C34.8795 66.2025 35.0355 65.8465 35.0995 65.4225H33.7915C33.3835 65.4225 33.0915 65.4985 32.9155 65.6505C32.7395 65.7945 32.6515 65.9745 32.6515 66.1905C32.6515 66.4225 32.7395 66.6025 32.9155 66.7305C33.0915 66.8585 33.3235 66.9225 33.6115 66.9225ZM38.4132 67.9785V63.3105H37.5972V62.0265H38.4132V61.3305C38.4132 60.6105 38.5932 60.0985 38.9532 59.7945C39.3212 59.4905 39.8172 59.3385 40.4412 59.3385H41.1012V60.6465H40.6812C40.4172 60.6465 40.2292 60.6985 40.1172 60.8025C40.0052 60.9065 39.9492 61.0825 39.9492 61.3305V62.0265H41.2332V63.3105H39.9492V67.9785H38.4132ZM45.0714 68.1225C44.4954 68.1225 43.9754 67.9905 43.5114 67.7265C43.0554 67.4625 42.6914 67.0985 42.4194 66.6345C42.1554 66.1625 42.0234 65.6185 42.0234 65.0025C42.0234 64.3865 42.1594 63.8465 42.4314 63.3825C42.7034 62.9105 43.0674 62.5425 43.5234 62.2785C43.9874 62.0145 44.5074 61.8825 45.0834 61.8825C45.6514 61.8825 46.1634 62.0145 46.6194 62.2785C47.0834 62.5425 47.4474 62.9105 47.7114 63.3825C47.9834 63.8465 48.1194 64.3865 48.1194 65.0025C48.1194 65.6185 47.9834 66.1625 47.7114 66.6345C47.4474 67.0985 47.0834 67.4625 46.6194 67.7265C46.1554 67.9905 45.6394 68.1225 45.0714 68.1225ZM45.0714 66.7905C45.4714 66.7905 45.8194 66.6425 46.1154 66.3465C46.4114 66.0425 46.5594 65.5945 46.5594 65.0025C46.5594 64.4105 46.4114 63.9665 46.1154 63.6705C45.8194 63.3665 45.4754 63.2145 45.0834 63.2145C44.6754 63.2145 44.3234 63.3665 44.0274 63.6705C43.7394 63.9665 43.5954 64.4105 43.5954 65.0025C43.5954 65.5945 43.7394 66.0425 44.0274 66.3465C44.3234 66.6425 44.6714 66.7905 45.0714 66.7905ZM49.4927 67.9785V62.0265H50.8487L50.9687 63.0345C51.1527 62.6825 51.4167 62.4025 51.7607 62.1945C52.1127 61.9865 52.5247 61.8825 52.9967 61.8825C53.7327 61.8825 54.3047 62.1145 54.7127 62.5785C55.1207 63.0425 55.3247 63.7225 55.3247 64.6185V67.9785H53.7887V64.7625C53.7887 64.2505 53.6847 63.8585 53.4767 63.5865C53.2687 63.3145 52.9447 63.1785 52.5047 63.1785C52.0727 63.1785 51.7167 63.3305 51.4367 63.6345C51.1647 63.9385 51.0287 64.3625 51.0287 64.9065V67.9785H49.4927ZM59.6855 68.1225C59.0855 68.1225 58.5535 67.9945 58.0895 67.7385C57.6255 67.4825 57.2615 67.1225 56.9975 66.6585C56.7335 66.1945 56.6015 65.6585 56.6015 65.0505C56.6015 64.4345 56.7295 63.8865 56.9855 63.4065C57.2495 62.9265 57.6095 62.5545 58.0655 62.2905C58.5295 62.0185 59.0735 61.8825 59.6975 61.8825C60.2815 61.8825 60.7975 62.0105 61.2455 62.2665C61.6935 62.5225 62.0415 62.8745 62.2895 63.3225C62.5455 63.7625 62.6735 64.2545 62.6735 64.7985C62.6735 64.8865 62.6695 64.9785 62.6615 65.0745C62.6615 65.1705 62.6575 65.2705 62.6495 65.3745H58.1255C58.1575 65.8385 58.3175 66.2025 58.6055 66.4665C58.9015 66.7305 59.2575 66.8625 59.6735 66.8625C59.9855 66.8625 60.2455 66.7945 60.4535 66.6585C60.6695 66.5145 60.8295 66.3305 60.9335 66.1065H62.4935C62.3815 66.4825 62.1935 66.8265 61.9295 67.1385C61.6735 67.4425 61.3535 67.6825 60.9695 67.8585C60.5935 68.0345 60.1655 68.1225 59.6855 68.1225ZM59.6975 63.1305C59.3215 63.1305 58.9895 63.2385 58.7015 63.4545C58.4135 63.6625 58.2295 63.9825 58.1495 64.4145H61.1135C61.0895 64.0225 60.9455 63.7105 60.6815 63.4785C60.4175 63.2465 60.0895 63.1305 59.6975 63.1305Z" fill="white"/>
<path d="M34.7991 0.996094C28.2334 0.996094 21.9366 3.60432 17.2939 8.247C12.6512 12.8897 10.043 19.1865 10.043 25.7522C10.043 32.318 12.6512 38.6148 17.2939 43.2575C21.9366 47.9002 28.2334 50.5084 34.7991 50.5084C41.3648 50.5084 47.6617 47.9002 52.3043 43.2575C56.947 38.6148 59.5553 32.318 59.5553 25.7522C59.5553 19.1865 56.947 12.8897 52.3043 8.247C47.6617 3.60432 41.3648 0.996094 34.7991 0.996094M43.5669 3.30667C44.2271 3.30667 44.9079 3.36856 45.3411 3.51297C40.8644 4.44132 37.2954 8.60861 37.316 13.3742C37.316 13.4773 37.316 13.6011 37.3366 13.7249C44.846 15.561 48.2087 20.079 48.2087 26.3299C48.2912 32.5808 43.34 39.4506 34.9848 39.4713C28.2387 39.4919 21.2039 33.7155 21.1626 24.4525C21.142 18.3254 24.4841 12.4252 28.6926 8.93869C32.8186 5.51409 38.4506 3.3273 43.5669 3.30667Z" fill="#E3FDE6"/>
</svg>
