<svg width="45" height="48" viewBox="0 0 45 48" fill="none" xmlns="http://www.w3.org/2000/svg">
<path d="M19.827 0.533203C16.8721 0.533203 14.0381 1.70705 11.9487 3.79652C9.85919 5.88599 8.68534 8.71991 8.68534 11.6749C8.68534 14.6298 9.85919 17.4637 11.9487 19.5532C14.0381 21.6427 16.8721 22.8165 19.827 22.8165C22.782 22.8165 25.6159 21.6427 27.7053 19.5532C29.7948 17.4637 30.9687 14.6298 30.9687 11.6749C30.9687 8.71991 29.7948 5.88599 27.7053 3.79652C25.6159 1.70705 22.782 0.533203 19.827 0.533203ZM11.4708 11.6749C11.4708 9.45865 12.3511 7.3332 13.9182 5.7661C15.4853 4.19901 17.6108 3.31862 19.827 3.31862C22.0432 3.31862 24.1687 4.19901 25.7358 5.7661C27.3029 7.3332 28.1832 9.45865 28.1832 11.6749C28.1832 13.8911 27.3029 16.0165 25.7358 17.5836C24.1687 19.1507 22.0432 20.0311 19.827 20.0311C17.6108 20.0311 15.4853 19.1507 13.9182 17.5836C12.3511 16.0165 11.4708 13.8911 11.4708 11.6749ZM5.925 25.6019C5.19142 25.599 4.46448 25.7409 3.78587 26.0195C3.10725 26.2981 2.49032 26.708 1.97043 27.2255C1.45055 27.7431 1.03795 28.3582 0.75629 29.0355C0.474634 29.7129 0.329462 30.4392 0.329102 31.1728C0.329102 35.8829 2.64935 39.4343 6.27596 41.749C9.19508 43.6096 12.947 44.6681 17.0416 44.9884V42.1946C13.3704 41.8771 10.1672 40.9217 7.77451 39.3953C4.84983 37.5319 3.11452 34.8217 3.11452 31.1728C3.11452 29.6324 4.36238 28.3873 5.925 28.3873H38.5784C38.0895 27.5405 37.3863 26.8373 36.5394 26.3483C35.6926 25.8594 34.7319 25.602 33.7541 25.6019H5.925ZM44.8957 35.3509V43.7071C44.8957 44.8152 44.4555 45.878 43.672 46.6615C42.8884 47.4451 41.8257 47.8853 40.7176 47.8853H24.0051C22.897 47.8853 21.8343 47.4451 21.0507 46.6615C20.2672 45.878 19.827 44.8152 19.827 43.7071V35.3509C19.827 34.2428 20.2672 33.1801 21.0507 32.3965C21.8343 31.613 22.897 31.1728 24.0051 31.1728H40.7176C41.8257 31.1728 42.8884 31.613 43.672 32.3965C44.4555 33.1801 44.8957 34.2428 44.8957 35.3509ZM42.1103 43.7071V40.9217C41.0022 40.9217 39.9395 41.3619 39.1559 42.1455C38.3724 42.929 37.9322 43.9917 37.9322 45.0998H40.7176C40.7176 44.7305 40.8643 44.3762 41.1255 44.115C41.3867 43.8539 41.7409 43.7071 42.1103 43.7071ZM42.1103 35.3509C41.7409 35.3509 41.3867 35.2042 41.1255 34.943C40.8643 34.6818 40.7176 34.3275 40.7176 33.9582H37.9322C37.9322 35.0663 38.3724 36.129 39.1559 36.9126C39.9395 37.6961 41.0022 38.1363 42.1103 38.1363V35.3509ZM24.0051 33.9582C24.0051 34.3275 23.8584 34.6818 23.5972 34.943C23.336 35.2042 22.9818 35.3509 22.6124 35.3509V38.1363C23.7205 38.1363 24.7832 37.6961 25.5668 36.9126C26.3503 36.129 26.7905 35.0663 26.7905 33.9582H24.0051ZM22.6124 43.7071C22.9818 43.7071 23.336 43.8539 23.5972 44.115C23.8584 44.3762 24.0051 44.7305 24.0051 45.0998H26.7905C26.7905 43.9917 26.3503 42.929 25.5668 42.1455C24.7832 41.3619 23.7205 40.9217 22.6124 40.9217V43.7071ZM32.3614 35.3509C31.2533 35.3509 30.1905 35.7911 29.407 36.5746C28.6234 37.3582 28.1832 38.4209 28.1832 39.529C28.1832 40.6371 28.6234 41.6998 29.407 42.4834C30.1905 43.2669 31.2533 43.7071 32.3614 43.7071C33.4695 43.7071 34.5322 43.2669 35.3157 42.4834C36.0993 41.6998 36.5395 40.6371 36.5395 39.529C36.5395 38.4209 36.0993 37.3582 35.3157 36.5746C34.5322 35.7911 33.4695 35.3509 32.3614 35.3509Z" fill="url(#paint0_linear_546_559)"/>
<defs>
<linearGradient id="paint0_linear_546_559" x1="6.03748" y1="0.533209" x2="62.2143" y2="16.4185" gradientUnits="userSpaceOnUse">
<stop stop-color="#0132D7"/>
<stop offset="1" stop-color="#6AE2E1"/>
</linearGradient>
</defs>
</svg>
