<svg width="48" height="49" viewBox="0 0 48 49" fill="none" xmlns="http://www.w3.org/2000/svg">
<path d="M24.2566 15.5393C25.103 15.5393 25.9147 15.203 26.5132 14.6046C27.1116 14.0061 27.4479 13.1944 27.4479 12.348C27.4479 11.5016 27.1116 10.6899 26.5132 10.0914C25.9147 9.49295 25.103 9.15673 24.2566 9.15673C23.4102 9.15673 22.5985 9.49295 22 10.0914C21.4016 10.6899 21.0653 11.5016 21.0653 12.348C21.0653 13.1944 21.4016 14.0061 22 14.6046C22.5985 15.203 23.4102 15.5393 24.2566 15.5393ZM26.1501 1.27429C25.6016 0.869977 24.938 0.651855 24.2566 0.651855C23.5752 0.651855 22.9116 0.869977 22.3631 1.27429L2.15173 16.1775C-0.324694 18.0051 0.966707 21.9367 4.04522 21.9367H5.10898V37.3442C3.84857 37.8693 2.77187 38.7559 2.01463 39.8921C1.2574 41.0284 0.853529 42.3634 0.853949 43.7288V46.9201C0.853949 47.8009 1.56879 48.5157 2.44958 48.5157H46.0636C46.4868 48.5157 46.8927 48.3476 47.1919 48.0484C47.4911 47.7491 47.6592 47.3433 47.6592 46.9201V43.7288C47.6592 42.3637 47.2552 41.0292 46.498 39.8934C45.7408 38.7576 44.6643 37.8713 43.4042 37.3463V21.9367H44.4658C47.5465 21.9367 48.8379 18.0051 46.3593 16.1775L26.1501 1.27429ZM8.30025 36.8144V21.9367H13.619V36.8144H8.30025ZM40.2129 21.9367V36.8144H34.8942V21.9367H40.2129ZM31.7029 21.9367V36.8144H25.8522V21.9367H31.7029ZM22.661 21.9367V36.8144H16.8103V21.9367H22.661ZM4.04522 18.7454L24.2566 3.8422L44.4658 18.7454H4.04522ZM4.04522 43.7288C4.04522 41.6736 5.71319 40.0057 7.76837 40.0057H40.7448C42.8 40.0057 44.468 41.6736 44.468 43.7288V45.3245H4.04522V43.7288Z" fill="url(#paint0_linear_546_558)"/>
<defs>
<linearGradient id="paint0_linear_546_558" x1="6.84576" y1="0.651861" x2="65.5076" y2="17.8897" gradientUnits="userSpaceOnUse">
<stop stop-color="#0132D7"/>
<stop offset="1" stop-color="#6AE2E1"/>
</linearGradient>
</defs>
</svg>
