<svg width="48" height="35" viewBox="0 0 48 35" fill="none" xmlns="http://www.w3.org/2000/svg">
<path d="M5.09655 0.746826C2.32765 0.746826 0.046875 3.0276 0.046875 5.7965V29.3617C0.046875 32.1306 2.32765 34.4113 5.09655 34.4113H42.1275C44.8964 34.4113 47.1772 32.1306 47.1772 29.3617V5.7965C47.1772 3.0276 44.8964 0.746826 42.1275 0.746826H5.09655ZM5.09655 4.11328H42.1275C43.0785 4.11328 43.8107 4.84548 43.8107 5.7965V9.16295H5.09655V12.5294H43.8107V29.3617C43.8107 30.3127 43.0785 31.0449 42.1275 31.0449H5.09655C4.14553 31.0449 3.41333 30.3127 3.41333 29.3617V5.7965C3.41333 4.84548 4.14553 4.11328 5.09655 4.11328Z" fill="url(#paint0_linear_546_550)"/>
<defs>
<linearGradient id="paint0_linear_546_550" x1="6.08363" y1="0.74683" x2="60.5975" y2="23.6767" gradientUnits="userSpaceOnUse">
<stop stop-color="#0132D7"/>
<stop offset="1" stop-color="#6AE2E1"/>
</linearGradient>
</defs>
</svg>
