<svg width="40" height="46" viewBox="0 0 40 46" fill="none" xmlns="http://www.w3.org/2000/svg">
<path d="M4.26741 0.889648C3.15751 0.889648 2.09307 1.33056 1.30825 2.11538C0.523427 2.90019 0.0825195 3.96464 0.0825195 5.07454V41.3436C0.0825195 42.4535 0.523427 43.5179 1.30825 44.3028C2.09307 45.0876 3.15751 45.5285 4.26741 45.5285H23.7969C24.9068 45.5285 25.9713 45.0876 26.7561 44.3028C27.5409 43.5179 27.9818 42.4535 27.9818 41.3436V37.1587C27.9818 36.7887 27.8348 36.4339 27.5732 36.1723C27.3116 35.9107 26.9568 35.7637 26.5868 35.7637C25.4346 35.7637 24.6981 35.4792 24.1987 35.1053C23.6881 34.7231 23.3003 34.1512 23.0157 33.3672C22.4187 31.7267 22.4019 29.5534 22.4019 27.394C22.4019 27.2105 22.3657 27.0288 22.2953 26.8593C22.2249 26.6898 22.1218 26.5359 21.9918 26.4063L21.1939 25.6056L17.8097 22.2214C16.5068 20.9185 16.1246 20.0453 16.0521 19.5571C15.9963 19.1665 16.1134 18.9042 16.3924 18.6364C16.9895 18.0644 17.4163 17.6766 17.899 17.5595C18.1864 17.4869 18.842 17.4367 20.0193 18.6141L28.3891 26.9838C28.6507 27.2458 29.0056 27.3931 29.3758 27.3933C29.5591 27.3935 29.7406 27.3575 29.91 27.2875C30.0794 27.2175 30.2333 27.1148 30.363 26.9852C30.4927 26.8557 30.5956 26.7019 30.6659 26.5326C30.7361 26.3634 30.7724 26.1819 30.7725 25.9986C30.7726 25.8153 30.7367 25.6338 30.6666 25.4644C30.5966 25.295 30.4939 25.1411 30.3644 25.0114L27.9818 22.6316V14.0218L35.124 21.1641C35.5131 21.5526 35.8217 22.014 36.0324 22.522C36.243 23.0299 36.3515 23.5743 36.3516 24.1242V44.1335C36.3516 44.5035 36.4986 44.8583 36.7602 45.1199C37.0218 45.3815 37.3766 45.5285 37.7466 45.5285C38.1165 45.5285 38.4713 45.3815 38.7329 45.1199C38.9945 44.8583 39.1415 44.5035 39.1415 44.1335V24.1242C39.1411 22.2752 38.4066 20.502 37.0993 19.1944L27.9818 10.0769V5.07454C27.9818 3.96464 27.5409 2.90019 26.7561 2.11538C25.9713 1.33056 24.9068 0.889648 23.7969 0.889648H4.26741ZM25.1919 10.6544V19.8416L21.9946 16.6416C20.3792 15.029 18.775 14.4738 17.2378 14.8477C16.9358 14.9222 16.643 15.0298 16.3645 15.1685C15.1174 14.8072 13.8034 14.741 12.5262 14.9749C11.2491 15.2089 10.0439 15.7367 9.00582 16.5166C7.96776 17.2965 7.12531 18.3071 6.54504 19.4686C5.96477 20.6301 5.66259 21.9107 5.66238 23.2091C5.66226 24.8271 6.13113 26.4104 7.01223 27.7675C7.89332 29.1246 9.14888 30.1971 10.6269 30.8554C12.105 31.5137 13.7421 31.7295 15.3402 31.4766C16.9384 31.2237 18.4289 30.5131 19.6315 29.4306C19.679 31.0432 19.8408 32.8064 20.3932 34.3214C20.8061 35.4569 21.4645 36.5421 22.5247 37.3345L22.5414 37.3512C21.6919 37.6184 20.9497 38.1496 20.4229 38.8676C19.896 39.5857 19.612 40.453 19.612 41.3436V42.7386H8.4523V41.3436C8.4523 40.2337 8.0114 39.1693 7.22658 38.3844C6.44176 37.5996 5.37731 37.1587 4.26741 37.1587H2.87245V9.25943H4.26741C5.37731 9.25943 6.44176 8.81853 7.22658 8.03371C8.0114 7.24889 8.4523 6.18444 8.4523 5.07454V3.67958H19.612V5.07454C19.612 6.18444 20.0529 7.24889 20.8377 8.03371C21.6226 8.81853 22.687 9.25943 23.7969 9.25943H25.1919V10.6544ZM25.1919 41.3436V41.3687C25.1853 41.7343 25.0354 42.0827 24.7745 42.3389C24.5136 42.5951 24.1626 42.7386 23.7969 42.7386H22.4019V41.3436C22.4019 40.9736 22.5489 40.6188 22.8105 40.3572C23.0721 40.0956 23.4269 39.9486 23.7969 39.9486H25.1919V41.3436ZM8.4523 23.2091C8.45232 21.7901 8.99297 20.4244 9.96424 19.3899C10.9355 18.3554 12.2644 17.7298 13.6806 17.6404C13.3347 18.2821 13.1589 19.0632 13.2928 19.9644C13.4909 21.3091 14.3474 22.7069 15.8345 24.1939L18.3649 26.7244C17.6385 27.6196 16.6526 28.2678 15.5428 28.5799C14.433 28.892 13.2537 28.8527 12.1672 28.4674C11.0806 28.082 10.1401 27.3696 9.47488 26.428C8.80967 25.4865 8.45244 24.3619 8.4523 23.2091ZM5.66238 3.67958V5.07454C5.66238 5.44451 5.51541 5.79932 5.2538 6.06093C4.99219 6.32254 4.63738 6.4695 4.26741 6.4695H2.87245V5.07454C2.87245 4.70457 3.01942 4.34976 3.28102 4.08815C3.54263 3.82655 3.89744 3.67958 4.26741 3.67958H5.66238ZM2.87245 39.9486H4.26741C4.63738 39.9486 4.99219 40.0956 5.2538 40.3572C5.51541 40.6188 5.66238 40.9736 5.66238 41.3436V42.7386H4.26741C3.89744 42.7386 3.54263 42.5916 3.28102 42.33C3.01942 42.0684 2.87245 41.7136 2.87245 41.3436V39.9486ZM25.1919 6.4695H23.7969C23.4269 6.4695 23.0721 6.32254 22.8105 6.06093C22.5489 5.79932 22.4019 5.44451 22.4019 5.07454V3.67958H23.7969C24.1669 3.67958 24.5217 3.82655 24.7833 4.08815C25.0449 4.34976 25.1919 4.70457 25.1919 5.07454V6.4695Z" fill="url(#paint0_linear_546_557)"/>
<defs>
<linearGradient id="paint0_linear_546_557" x1="5.08545" y1="0.889654" x2="54.8195" y2="13.9642" gradientUnits="userSpaceOnUse">
<stop stop-color="#0132D7"/>
<stop offset="1" stop-color="#6AE2E1"/>
</linearGradient>
</defs>
</svg>
