<svg width="44" height="45" viewBox="0 0 44 45" fill="none" xmlns="http://www.w3.org/2000/svg">
<path d="M43.1087 2.22991C43.2087 1.98001 43.2332 1.70624 43.1791 1.44256C43.1251 1.17887 42.9948 0.936856 42.8044 0.746519C42.6141 0.556182 42.3721 0.425892 42.1084 0.371801C41.8447 0.31771 41.5709 0.342197 41.321 0.442227L1.31277 16.4461C0.960434 16.5871 0.653835 16.8226 0.42672 17.1267C0.199605 17.4307 0.0607798 17.7916 0.0255227 18.1694C-0.00973434 18.5473 0.0599439 18.9276 0.226889 19.2684C0.393833 19.6093 0.651572 19.8974 0.971738 20.1012L14.7094 28.8416L18.92 35.4587C19.1189 35.759 19.4276 35.9692 19.7799 36.0443C20.1321 36.1194 20.4997 36.0533 20.8037 35.8602C21.1077 35.6672 21.3239 35.3625 21.4057 35.0118C21.4875 34.6611 21.4285 34.2923 21.2413 33.9846L17.4569 28.0385L38.0675 7.42793L32.8557 20.4587C32.7841 20.6271 32.7468 20.8081 32.7461 20.9911C32.7453 21.1741 32.7811 21.3554 32.8513 21.5244C32.9215 21.6934 33.0247 21.8467 33.1549 21.9752C33.2851 22.1038 33.4397 22.2051 33.6095 22.2732C33.7794 22.3413 33.9611 22.3748 34.1441 22.3718C34.327 22.3687 34.5076 22.3292 34.675 22.2555C34.8425 22.1818 34.9936 22.0754 35.1195 21.9425C35.2453 21.8097 35.3434 21.6531 35.4079 21.4818L43.1087 2.22991ZM36.123 5.48348L15.5124 26.094L3.579 18.5005L36.123 5.48348Z" fill="url(#paint0_linear_546_554)"/>
<path d="M43.208 34.7222C43.208 37.2751 42.1938 39.7235 40.3886 41.5287C38.5834 43.334 36.135 44.3481 33.582 44.3481C31.0291 44.3481 28.5807 43.334 26.7754 41.5287C24.9702 39.7235 23.9561 37.2751 23.9561 34.7222C23.9561 32.1692 24.9702 29.7208 26.7754 27.9156C28.5807 26.1104 31.0291 25.0962 33.582 25.0962C36.135 25.0962 38.5834 26.1104 40.3886 27.9156C42.1938 29.7208 43.208 32.1692 43.208 34.7222ZM37.7267 30.1044C37.5718 30.0116 37.4 29.9502 37.2214 29.9237C37.0427 29.8972 36.8605 29.9062 36.6853 29.9501C36.5101 29.9941 36.3453 30.0721 36.2003 30.1797C36.0552 30.2874 35.9328 30.4225 35.84 30.5775L32.6222 35.9405L31.1178 34.4361C30.8596 34.1779 30.5093 34.0329 30.1442 34.0329C29.779 34.0329 29.4288 34.1779 29.1706 34.4361C28.9124 34.6943 28.7673 35.0446 28.7673 35.4097C28.7673 35.7749 28.9124 36.1251 29.1706 36.3833L31.2993 38.5093C31.5209 38.7313 31.7901 38.8998 32.0866 39.0021C32.3831 39.1044 32.6991 39.1377 33.0104 39.0995C33.3217 39.0613 33.6202 38.9527 33.8832 38.7817C34.1462 38.6108 34.3668 38.3822 34.5281 38.1132L38.1997 31.9911C38.2926 31.8362 38.354 31.6645 38.3805 31.4858C38.407 31.3071 38.398 31.125 38.3541 30.9498C38.3101 30.7746 38.2321 30.6098 38.1245 30.4647C38.0168 30.3197 37.8817 30.1972 37.7267 30.1044Z" fill="url(#paint1_linear_546_554)"/>
<defs>
<linearGradient id="paint0_linear_546_554" x1="5.54873" y1="0.343754" x2="57.4931" y2="19.2085" gradientUnits="userSpaceOnUse">
<stop stop-color="#0132D7"/>
<stop offset="1" stop-color="#6AE2E1"/>
</linearGradient>
<linearGradient id="paint1_linear_546_554" x1="26.422" y1="25.0962" x2="50.4599" y2="32.3183" gradientUnits="userSpaceOnUse">
<stop stop-color="#0132D7"/>
<stop offset="1" stop-color="#6AE2E1"/>
</linearGradient>
</defs>
</svg>
