<svg width="47" height="41" viewBox="0 0 47 41" fill="none" xmlns="http://www.w3.org/2000/svg">
<path d="M45.9919 7.45311C45.7787 7.23796 45.5248 7.06735 45.2451 6.95119C44.9653 6.83504 44.6653 6.77566 44.3624 6.77651H42.7356V2.9425C42.735 2.3326 42.4924 1.74788 42.0611 1.31662C41.6298 0.885358 41.0451 0.642775 40.4352 0.64209H7.33114C5.53573 0.642115 3.81387 1.35535 2.54433 2.62489C1.27478 3.89444 0.561549 5.6163 0.561523 7.41171V33.7462C0.561549 35.5416 1.27478 37.2635 2.54433 38.533C3.81387 39.8025 5.53573 40.5158 7.33114 40.5158H44.2718C44.8803 40.5146 45.4636 40.2729 45.8946 39.8433C46.3255 39.4138 46.5691 38.8312 46.5722 38.2228L46.6627 9.08477C46.6646 8.78191 46.6063 8.4817 46.4911 8.20158C46.376 7.92147 46.2062 7.66705 45.9919 7.45311ZM43.5075 37.4486H7.33114C6.3492 37.4486 5.40748 37.0585 4.71314 36.3642C4.01881 35.6698 3.62873 34.7281 3.62873 33.7462V7.41171C3.62873 6.42977 4.01881 5.48804 4.71314 4.79371C5.40748 4.09937 6.3492 3.7093 7.33114 3.7093H39.6684V6.77651H7.46274V9.84371H43.5932L43.5075 37.4486Z" fill="url(#paint0_linear_546_551)"/>
<path d="M36.6011 21.3459H39.6683V24.4132H36.6011V21.3459Z" fill="url(#paint1_linear_546_551)"/>
<defs>
<linearGradient id="paint0_linear_546_551" x1="6.46647" y1="0.642094" x2="62.467" y2="20.095" gradientUnits="userSpaceOnUse">
<stop stop-color="#0132D7"/>
<stop offset="1" stop-color="#6AE2E1"/>
</linearGradient>
<linearGradient id="paint1_linear_546_551" x1="36.9939" y1="21.3459" x2="40.8236" y2="22.4966" gradientUnits="userSpaceOnUse">
<stop stop-color="#0132D7"/>
<stop offset="1" stop-color="#6AE2E1"/>
</linearGradient>
</defs>
</svg>
