<svg width="84" height="98" viewBox="0 0 84 98" fill="none" xmlns="http://www.w3.org/2000/svg">
<path d="M42 0.00585938L0.00244141 14.005V56.0026C0.00244141 79.1997 18.8029 98.0002 42 98.0002C65.1971 98.0002 83.9976 79.1997 83.9976 56.0026V14.005L42 0.00585938ZM76.123 56.0026C76.123 74.8468 60.8442 90.1256 42 90.1256C23.1558 90.1256 7.87698 74.8468 7.87698 56.0026V19.911L42 7.8804L76.123 19.911V56.0026Z" fill="#74F581"/>
<path d="M27.3876 44.9678C27.0227 44.6012 26.5889 44.3103 26.1112 44.1118C25.6336 43.9133 25.1214 43.8112 24.6041 43.8112C24.0869 43.8112 23.5747 43.9133 23.0971 44.1118C22.6194 44.3103 22.1856 44.6012 21.8207 44.9678C21.4541 45.3327 21.1632 45.7665 20.9647 46.2441C20.7662 46.7218 20.6641 47.234 20.6641 47.7512C20.6641 48.2685 20.7662 48.7807 20.9647 49.2583C21.1632 49.736 21.4541 50.1697 21.8207 50.5347L35.973 64.687L36.2027 64.9167C36.5479 65.2625 36.9579 65.5369 37.4092 65.7241C37.8606 65.9113 38.3444 66.0076 38.833 66.0076C39.3216 66.0076 39.8055 65.9113 40.2568 65.7241C40.7081 65.5369 41.1181 65.2625 41.4633 64.9167L65.9072 40.4728C66.253 40.1276 66.5274 39.7176 66.7146 39.2662C66.9018 38.8149 66.9982 38.3311 66.9982 37.8424C66.9982 37.3538 66.9018 36.87 66.7146 36.4187C66.5274 35.9673 66.253 35.5573 65.9072 35.2121L65.601 34.9059C65.2558 34.5601 64.8458 34.2857 64.3945 34.0985C63.9431 33.9113 63.4593 33.8149 62.9707 33.8149C62.482 33.8149 61.9982 33.9113 61.5469 34.0985C61.0955 34.2857 60.6855 34.5601 60.3403 34.9059L38.8275 56.4078L27.3876 44.9678Z" fill="#74F581"/>
</svg>
