<svg width="88" height="65" viewBox="0 0 88 65" fill="none" xmlns="http://www.w3.org/2000/svg">
<path d="M2.90039 47.4557V2.61987H70.1541" stroke="#74F581" stroke-width="5" stroke-linecap="round" stroke-linejoin="round"/>
<path d="M58.9445 17.5657H82.857C83.4516 17.5657 84.0218 17.8019 84.4422 18.2223C84.8626 18.6427 85.0988 19.2129 85.0988 19.8075V60.1597C85.0988 60.7543 84.8626 61.3245 84.4422 61.7449C84.0218 62.1653 83.4516 62.4015 82.857 62.4015H58.9445M58.9445 17.5657V62.4015M58.9445 17.5657H43.9993M58.9445 62.4015H43.9993M43.9993 62.4015H20.0868C19.4923 62.4015 18.9221 62.1653 18.5016 61.7449C18.0812 61.3245 17.845 60.7543 17.845 60.1597V19.8075C17.845 19.2129 18.0812 18.6427 18.5016 18.2223C18.9221 17.8019 19.4923 17.5657 20.0868 17.5657H43.9993M43.9993 62.4015V17.5657" stroke="#74F581" stroke-width="5" stroke-linecap="round" stroke-linejoin="round"/>
</svg>
