<svg width="106" height="106" viewBox="0 0 106 106" fill="none" xmlns="http://www.w3.org/2000/svg">
<path d="M53 0C42.5176 0 32.2706 3.1084 23.5548 8.93211C14.839 14.7558 8.04585 23.0333 4.03441 32.7178C0.0229641 42.4023 -1.02661 53.0588 1.0184 63.3398C3.06342 73.6208 8.11118 83.0645 15.5234 90.4766C22.9355 97.8888 32.3792 102.937 42.6602 104.982C52.9412 107.027 63.5977 105.977 73.2822 101.966C82.9667 97.9542 91.2442 91.161 97.0679 82.4452C102.892 73.7294 106 63.4824 106 53C105.973 38.9518 100.381 25.4867 90.4469 15.5531C80.5133 5.6195 67.0482 0.0269381 53 0ZM53 97.8461C44.1303 97.8461 35.4597 95.216 28.0848 90.2882C20.7099 85.3604 14.9619 78.3564 11.5676 70.1619C8.17328 61.9673 7.28518 52.9502 9.01557 44.2509C10.746 35.5516 15.0172 27.5608 21.289 21.289C27.5608 15.0171 35.5517 10.7459 44.251 9.01555C52.9503 7.28515 61.9673 8.17326 70.1619 11.5676C78.3565 14.9619 85.3605 20.7099 90.2882 28.0848C95.216 35.4597 97.8462 44.1303 97.8462 53C97.8327 64.8898 93.1035 76.2887 84.6961 84.6961C76.2888 93.1035 64.8898 97.8326 53 97.8461ZM73.3846 63.1923C73.3712 66.9726 71.8635 70.5942 69.1904 73.2673C66.5173 75.9404 62.8957 77.4481 59.1154 77.4615H57.0769V81.5385C57.0769 82.6197 56.6474 83.6567 55.8828 84.4213C55.1183 85.1858 54.0813 85.6154 53 85.6154C51.9187 85.6154 50.8818 85.1858 50.1172 84.4213C49.3526 83.6567 48.9231 82.6197 48.9231 81.5385V77.4615H40.7692C39.688 77.4615 38.651 77.032 37.8864 76.2674C37.1219 75.5029 36.6923 74.4659 36.6923 73.3846C36.6923 72.3033 37.1219 71.2663 37.8864 70.5018C38.651 69.7372 39.688 69.3077 40.7692 69.3077H59.1154C60.7373 69.3077 62.2928 68.6634 63.4396 67.5165C64.5865 66.3697 65.2308 64.8142 65.2308 63.1923C65.2308 61.5704 64.5865 60.0149 63.4396 58.8681C62.2928 57.7212 60.7373 57.0769 59.1154 57.0769H46.8846C43.1002 57.0769 39.4708 55.5736 36.7948 52.8976C34.1188 50.2216 32.6154 46.5921 32.6154 42.8077C32.6154 39.0233 34.1188 35.3938 36.7948 32.7178C39.4708 30.0418 43.1002 28.5385 46.8846 28.5385H48.9231V24.4615C48.9231 23.3803 49.3526 22.3433 50.1172 21.5787C50.8818 20.8141 51.9187 20.3846 53 20.3846C54.0813 20.3846 55.1183 20.8141 55.8828 21.5787C56.6474 22.3433 57.0769 23.3803 57.0769 24.4615V28.5385H65.2308C66.312 28.5385 67.349 28.968 68.1136 29.7326C68.8782 30.4971 69.3077 31.5341 69.3077 32.6154C69.3077 33.6966 68.8782 34.7336 68.1136 35.4982C67.349 36.2628 66.312 36.6923 65.2308 36.6923H46.8846C45.2627 36.6923 43.7073 37.3366 42.5604 38.4835C41.4135 39.6303 40.7692 41.1858 40.7692 42.8077C40.7692 44.4296 41.4135 45.9851 42.5604 47.1319C43.7073 48.2788 45.2627 48.9231 46.8846 48.9231H59.1154C62.8957 48.9365 66.5173 50.4442 69.1904 53.1173C71.8635 55.7904 73.3712 59.412 73.3846 63.1923Z" fill="#74F581"/>
</svg>
