<svg width="80" height="59" viewBox="0 0 80 59" fill="none" xmlns="http://www.w3.org/2000/svg">
<path d="M69.3471 4.89115C70.6444 4.89115 71.8884 5.40646 72.8057 6.32373C73.723 7.241 74.2383 8.48508 74.2383 9.78229V48.9115C74.2383 50.2087 73.723 51.4528 72.8057 52.37C71.8884 53.2873 70.6444 53.8026 69.3471 53.8026H10.6534C9.35617 53.8026 8.11209 53.2873 7.19482 52.37C6.27756 51.4528 5.76224 50.2087 5.76224 48.9115V9.78229C5.76224 8.48508 6.27756 7.241 7.19482 6.32373C8.11209 5.40646 9.35617 4.89115 10.6534 4.89115H69.3471ZM10.6534 0C8.05896 0 5.5708 1.03063 3.73626 2.86517C1.90173 4.6997 0.871094 7.18787 0.871094 9.78229L0.871094 48.9115C0.871094 51.5059 1.90173 53.994 3.73626 55.8286C5.5708 57.6631 8.05896 58.6937 10.6534 58.6937H69.3471C71.9416 58.6937 74.4297 57.6631 76.2643 55.8286C78.0988 53.994 79.1294 51.5059 79.1294 48.9115V9.78229C79.1294 7.18787 78.0988 4.6997 76.2643 2.86517C74.4297 1.03063 71.9416 0 69.3471 0H10.6534Z" fill="#0132D7"/>
<path d="M10.6523 17.1189C10.6523 16.4703 10.91 15.8483 11.3686 15.3896C11.8273 14.931 12.4493 14.6733 13.0979 14.6733H22.8802C23.5288 14.6733 24.1509 14.931 24.6095 15.3896C25.0681 15.8483 25.3258 16.4703 25.3258 17.1189V22.0101C25.3258 22.6587 25.0681 23.2807 24.6095 23.7393C24.1509 24.198 23.5288 24.4556 22.8802 24.4556H13.0979C12.4493 24.4556 11.8273 24.198 11.3686 23.7393C10.91 23.2807 10.6523 22.6587 10.6523 22.0101V17.1189ZM10.6523 31.7924C10.6523 31.1437 10.91 30.5217 11.3686 30.0631C11.8273 29.6044 12.4493 29.3468 13.0979 29.3468H37.5536C38.2023 29.3468 38.8243 29.6044 39.2829 30.0631C39.7416 30.5217 39.9992 31.1437 39.9992 31.7924C39.9992 32.441 39.7416 33.063 39.2829 33.5216C38.8243 33.9803 38.2023 34.2379 37.5536 34.2379H13.0979C12.4493 34.2379 11.8273 33.9803 11.3686 33.5216C10.91 33.063 10.6523 32.441 10.6523 31.7924ZM10.6523 41.5746C10.6523 40.926 10.91 40.304 11.3686 39.8454C11.8273 39.3867 12.4493 39.1291 13.0979 39.1291H17.9891C18.6377 39.1291 19.2597 39.3867 19.7183 39.8454C20.177 40.304 20.4346 40.926 20.4346 41.5746C20.4346 42.2232 20.177 42.8453 19.7183 43.3039C19.2597 43.7626 18.6377 44.0202 17.9891 44.0202H13.0979C12.4493 44.0202 11.8273 43.7626 11.3686 43.3039C10.91 42.8453 10.6523 42.2232 10.6523 41.5746ZM25.3258 41.5746C25.3258 40.926 25.5834 40.304 26.0421 39.8454C26.5007 39.3867 27.1227 39.1291 27.7714 39.1291H32.6625C33.3111 39.1291 33.9331 39.3867 34.3918 39.8454C34.8504 40.304 35.1081 40.926 35.1081 41.5746C35.1081 42.2232 34.8504 42.8453 34.3918 43.3039C33.9331 43.7626 33.3111 44.0202 32.6625 44.0202H27.7714C27.1227 44.0202 26.5007 43.7626 26.0421 43.3039C25.5834 42.8453 25.3258 42.2232 25.3258 41.5746ZM39.9992 41.5746C39.9992 40.926 40.2569 40.304 40.7155 39.8454C41.1741 39.3867 41.7962 39.1291 42.4448 39.1291H47.3359C47.9845 39.1291 48.6066 39.3867 49.0652 39.8454C49.5239 40.304 49.7815 40.926 49.7815 41.5746C49.7815 42.2232 49.5239 42.8453 49.0652 43.3039C48.6066 43.7626 47.9845 44.0202 47.3359 44.0202H42.4448C41.7962 44.0202 41.1741 43.7626 40.7155 43.3039C40.2569 42.8453 39.9992 42.2232 39.9992 41.5746ZM54.6727 41.5746C54.6727 40.926 54.9303 40.304 55.3889 39.8454C55.8476 39.3867 56.4696 39.1291 57.1182 39.1291H62.0094C62.658 39.1291 63.28 39.3867 63.7387 39.8454C64.1973 40.304 64.4549 40.926 64.4549 41.5746C64.4549 42.2232 64.1973 42.8453 63.7387 43.3039C63.28 43.7626 62.658 44.0202 62.0094 44.0202H57.1182C56.4696 44.0202 55.8476 43.7626 55.3889 43.3039C54.9303 42.8453 54.6727 42.2232 54.6727 41.5746Z" fill="#0132D7"/>
</svg>
