<svg width="78" height="78" viewBox="0 0 78 78" fill="none" xmlns="http://www.w3.org/2000/svg">
<path d="M5.55634 29.6366V10.2907C5.5512 8.95291 5.82389 7.6203 6.35899 6.3906C6.88446 5.17435 7.61937 4.05979 8.53026 3.09767C9.4342 2.13841 10.5228 1.37185 11.7306 0.844079C12.9654 0.303833 14.298 0.020847 15.6461 0.000266236H52.0638C53.4118 -0.0100242 54.7393 0.278107 55.9638 0.844079C57.1627 1.39976 58.2483 2.16125 59.1796 3.09767C60.1109 4.02381 60.8518 5.13517 61.3509 6.34944C61.8654 7.59972 62.1381 8.93747 62.1535 10.2907V46.307H77.5891V56.9216C77.5942 58.9025 77.1878 60.8577 76.3851 62.6688C74.7893 66.2952 71.8924 69.192 68.266 70.7879C66.4394 71.592 64.4682 72.0157 62.4725 72.033H51.4361C51.0528 70.9493 50.4322 69.9649 49.6198 69.1517L47.3559 66.8878H57.0083V10.2907C57.0121 9.61312 56.8755 8.94214 56.607 8.32005C56.343 7.71258 55.9757 7.1555 55.5214 6.67359C55.0587 6.1854 54.4975 5.80129 53.8749 5.54679C53.2376 5.28067 52.5537 5.14423 51.8631 5.14546H15.8467C15.1749 5.13762 14.5083 5.26525 13.8868 5.52073C13.2654 5.77621 12.7018 6.1543 12.2297 6.63243C11.7579 7.10884 11.3762 7.66664 11.1029 8.27889C10.8126 8.90854 10.6751 9.59783 10.7015 10.2907V27.0537C8.88569 27.6973 7.15727 28.5649 5.55634 29.6366ZM62.3542 66.8878C63.6713 66.893 64.9679 66.6203 66.1719 66.0852C68.5901 65.0047 70.5196 63.0752 71.6001 60.657C72.1383 59.4406 72.4253 58.1281 72.4439 56.7981V51.4522H62.1535V66.8878H62.3542ZM37.6932 36.0166H44.1453C44.8276 36.0166 45.482 35.7456 45.9644 35.2632C46.4469 34.7807 46.7179 34.1263 46.7179 33.444C46.7179 32.7618 46.4469 32.1074 45.9644 31.6249C45.482 31.1425 44.8276 30.8714 44.1453 30.8714H33.0008C34.8154 32.3401 36.3974 34.0748 37.6932 36.0166ZM23.5645 20.5811C22.8822 20.5811 22.2279 20.31 21.7454 19.8276C21.263 19.3451 20.9919 18.6908 20.9919 18.0085C20.9919 17.3262 21.263 16.6718 21.7454 16.1894C22.2279 15.7069 22.8822 15.4359 23.5645 15.4359H44.1453C44.8276 15.4359 45.482 15.7069 45.9644 16.1894C46.4469 16.6718 46.7179 17.3262 46.7179 18.0085C46.7179 18.6908 46.4469 19.3451 45.9644 19.8276C45.482 20.31 44.8276 20.5811 44.1453 20.5811H23.5645ZM29.2242 63.2862C25.5802 66.0192 21.0358 67.2698 16.5065 66.7859C11.9772 66.3021 7.79948 64.1198 4.81498 60.6786C1.83048 57.2375 0.260918 52.7932 0.422473 48.2409C0.584027 43.6887 2.46469 39.3669 5.68562 36.1459C8.90655 32.925 13.2284 31.0443 17.7806 30.8828C22.3329 30.7212 26.7772 32.2908 30.2183 35.2753C33.6595 38.2598 35.8418 42.4375 36.3256 46.9668C36.8095 51.4961 35.5589 56.0405 32.8259 59.6845L45.9822 72.7688C46.2213 73.0076 46.4111 73.2913 46.5407 73.6035C46.6703 73.9157 46.7371 74.2503 46.7374 74.5884C46.7376 74.9264 46.6713 75.2612 46.5421 75.5735C46.413 75.8859 46.2236 76.1698 45.9847 76.409C45.7459 76.6482 45.4622 76.838 45.15 76.9676C44.8378 77.0972 44.5032 77.164 44.1651 77.1642C43.8271 77.1645 43.4924 77.0981 43.18 76.969C42.8676 76.8398 42.5837 76.6504 42.3445 76.4116L29.2242 63.2862ZM11.2727 59.5765C12.6777 60.5154 14.254 61.1683 15.9114 61.498C17.5688 61.8276 19.2749 61.8277 20.9323 61.498C22.5897 61.1683 24.1659 60.5154 25.571 59.5766C26.9761 58.6378 28.1825 57.4314 29.1213 56.0263C30.0602 54.6212 30.7131 53.045 31.0428 51.3876C31.3725 49.7302 31.3725 48.0241 31.0428 46.3667C30.7132 44.7093 30.0603 43.1331 29.1215 41.728C28.1826 40.3229 26.9762 39.1165 25.5712 38.1776C22.7328 36.2808 19.2572 35.5893 15.909 36.2551C12.5607 36.9209 9.61411 38.8895 7.71732 41.7278C5.82054 44.5662 5.12898 48.0418 5.79477 51.39C6.46056 54.7382 8.42916 57.6849 11.2675 59.5816L11.2727 59.5765Z" fill="#0132D7"/>
</svg>
