<svg width="74" height="88" viewBox="0 0 74 88" fill="none" xmlns="http://www.w3.org/2000/svg">
<path d="M31.2564 53.9894C32.7797 53.9894 34.2406 53.3843 35.3177 52.3072C36.3948 51.23 37 49.7691 37 48.2459C37 46.7226 36.3948 45.2617 35.3177 44.1846C34.2406 43.1074 32.7797 42.5023 31.2564 42.5023C29.7331 42.5023 28.2722 43.1074 27.1951 44.1846C26.118 45.2617 25.5129 46.7226 25.5129 48.2459C25.5129 49.7691 26.118 51.23 27.1951 52.3072C28.2722 53.3843 29.7331 53.9894 31.2564 53.9894ZM15.1745 16.082C15.1745 11.8168 16.8688 7.72625 19.8848 4.7103C22.9007 1.69434 26.9912 0 31.2564 0C35.5216 0 39.6121 1.69434 42.6281 4.7103C45.644 7.72625 47.3384 11.8168 47.3384 16.082V20.6768H51.9332C54.6751 20.6768 57.3047 21.766 59.2436 23.7048C61.1824 25.6437 62.2716 28.2733 62.2716 31.0152V65.4765C62.2716 68.2184 61.1824 70.8481 59.2436 72.7869C57.3047 74.7257 54.6751 75.8149 51.9332 75.8149H10.5796C7.8377 75.8149 5.20809 74.7257 3.26926 72.7869C1.33043 70.8481 0.241211 68.2184 0.241211 65.4765V31.0152C0.241211 28.2733 1.33043 25.6437 3.26926 23.7048C5.20809 21.766 7.8377 20.6768 10.5796 20.6768H15.1745V16.082ZM40.4461 16.082C40.4461 13.6447 39.4779 11.3073 37.7545 9.58386C36.0311 7.86046 33.6937 6.89227 31.2564 6.89227C28.8192 6.89227 26.4817 7.86046 24.7583 9.58386C23.0349 11.3073 22.0667 13.6447 22.0667 16.082V20.6768H40.4461V16.082ZM7.13348 31.0152V65.4765C7.13348 67.3788 8.67735 68.9227 10.5796 68.9227H51.9332C52.8472 68.9227 53.7237 68.5596 54.37 67.9133C55.0163 67.267 55.3793 66.3905 55.3793 65.4765V31.0152C55.3793 30.1012 55.0163 29.2247 54.37 28.5784C53.7237 27.9321 52.8472 27.5691 51.9332 27.5691H10.5796C9.66564 27.5691 8.7891 27.9321 8.14283 28.5784C7.49655 29.2247 7.13348 30.1012 7.13348 31.0152ZM26.6616 87.302C24.5231 87.3027 22.4371 86.6402 20.6908 85.4058C18.9446 84.1714 17.6241 82.4259 16.9113 80.4098H54.2306C57.5819 80.4098 60.7958 79.0785 63.1655 76.7088C65.5352 74.3392 66.8665 71.1252 66.8665 67.774V37.3469C68.8826 38.0597 70.6281 39.3802 71.8625 41.1264C73.0969 42.8727 73.7594 44.9587 73.7587 47.0972V67.774C73.7587 70.3384 73.2536 72.8778 72.2722 75.247C71.2909 77.6163 69.8524 79.769 68.0391 81.5824C66.2257 83.3957 64.073 84.8342 61.7037 85.8156C59.3344 86.7969 56.7951 87.302 54.2306 87.302H26.6616Z" fill="#0132D7"/>
</svg>
