<svg width="121" height="122" viewBox="0 0 121 122" fill="none" xmlns="http://www.w3.org/2000/svg">
<path d="M107.007 74.3039C111.453 67.3308 113.809 59.2296 113.794 50.9595C113.794 26.9289 94.3156 7.4501 70.285 7.4501C61.6936 7.4501 53.6845 9.94017 46.9406 14.2342C42.4524 14.486 38.0101 15.2702 33.707 16.5703C36.9779 13.0931 40.7258 10.0979 44.8387 7.67434C52.4995 3.16027 61.2259 0.772127 70.1177 0.756348H70.285C98.0105 0.756348 120.488 23.234 120.488 50.9595C120.488 51.4113 120.481 51.8598 120.471 52.3083L120.465 52.4689C120.225 60.9021 117.853 69.1373 113.57 76.4058C111.147 80.5187 108.152 84.2667 104.674 87.5375C105.949 83.3104 106.749 78.8791 107.007 74.3039Z" fill="#74F581"/>
<path fill-rule="evenodd" clip-rule="evenodd" d="M66.1734 56.5386C65.2502 53.9281 63.5405 51.668 61.2796 50.0695C59.0188 48.4709 56.3179 47.6125 53.549 47.6125V44.2656H46.8553V47.6125C43.3047 47.6125 39.8995 49.023 37.3889 51.5336C34.8782 54.0443 33.4678 57.4494 33.4678 61C33.4678 64.5506 34.8782 67.9557 37.3889 70.4664C39.8995 72.977 43.3047 74.3875 46.8553 74.3875V87.775C43.9435 87.775 41.4635 85.9175 40.5397 83.3136C40.4027 82.8876 40.1816 82.4934 39.8895 82.1543C39.5975 81.8153 39.2404 81.5382 38.8394 81.3396C38.4384 81.1409 38.0016 81.0247 37.5549 80.9978C37.1082 80.9709 36.6606 81.0338 36.2387 81.1829C35.8168 81.332 35.429 81.5642 35.0983 81.8657C34.7677 82.1673 34.5009 82.5321 34.3137 82.9386C34.1265 83.345 34.0227 83.7849 34.0085 84.2322C33.9942 84.6795 34.0699 85.1251 34.2309 85.5426C35.1541 88.1531 36.8638 90.4132 39.1247 92.0118C41.3855 93.6103 44.0864 94.4687 46.8553 94.4687V97.8156H53.549V94.4687C57.0996 94.4687 60.5048 93.0583 63.0154 90.5476C65.5261 88.037 66.9365 84.6318 66.9365 81.0812C66.9365 77.5307 65.5261 74.1255 63.0154 71.6149C60.5048 69.1042 57.0996 67.6937 53.549 67.6937V54.3062C56.4608 54.3062 58.9408 56.1638 59.8646 58.7676C60.0016 59.1936 60.2227 59.5878 60.5148 59.9269C60.8068 60.266 61.1639 60.543 61.5649 60.7417C61.9659 60.9403 62.4027 61.0566 62.8494 61.0835C63.2961 61.1104 63.7436 61.0474 64.1656 60.8983C64.5875 60.7493 64.9753 60.5171 65.306 60.2155C65.6366 59.914 65.9034 59.5492 66.0906 59.1427C66.2778 58.7362 66.3816 58.2963 66.3958 57.849C66.41 57.4018 66.3344 56.9562 66.1734 56.5386ZM46.8553 54.3062C45.08 54.3062 43.3774 55.0115 42.1221 56.2668C40.8668 57.5221 40.1615 59.2247 40.1615 61C40.1615 62.7753 40.8668 64.4779 42.1221 65.7332C43.3774 66.9885 45.08 67.6937 46.8553 67.6937V54.3062ZM53.549 87.775C55.3243 87.775 57.0269 87.0698 58.2822 85.8144C59.5375 84.5591 60.2428 82.8565 60.2428 81.0812C60.2428 79.306 59.5375 77.6034 58.2822 76.348C57.0269 75.0927 55.3243 74.3875 53.549 74.3875V87.775Z" fill="#74F581"/>
<path fill-rule="evenodd" clip-rule="evenodd" d="M100.405 71.0405C100.405 98.766 77.9276 121.244 50.2021 121.244C22.4766 121.244 -0.000976562 98.766 -0.000976562 71.0405C-0.000976562 43.315 22.4766 20.8374 50.2021 20.8374C77.9276 20.8374 100.405 43.315 100.405 71.0405ZM93.7115 71.0405C93.7115 95.0711 74.2327 114.55 50.2021 114.55C26.1716 114.55 6.69277 95.0711 6.69277 71.0405C6.69277 47.01 26.1716 27.5312 50.2021 27.5312C74.2327 27.5312 93.7115 47.01 93.7115 71.0405Z" fill="#74F581"/>
</svg>
