<svg width="112" height="84" viewBox="0 0 112 84" fill="none" xmlns="http://www.w3.org/2000/svg">
<path d="M97.6051 7.32879C99.4442 7.32879 101.208 8.05937 102.508 9.35979C103.809 10.6602 104.539 12.424 104.539 14.2631V69.7372C104.539 71.5762 103.809 73.34 102.508 74.6404C101.208 75.9409 99.4442 76.6714 97.6051 76.6714H14.3939C12.5548 76.6714 10.7911 75.9409 9.49065 74.6404C8.19023 73.34 7.45965 71.5762 7.45965 69.7372V14.2631C7.45965 12.424 8.19023 10.6602 9.49065 9.35979C10.7911 8.05937 12.5548 7.32879 14.3939 7.32879H97.6051ZM14.3939 0.394531C10.7158 0.394531 7.18824 1.85567 4.58739 4.45653C1.98653 7.05738 0.525391 10.5849 0.525391 14.2631L0.525391 69.7372C0.525391 73.4153 1.98653 76.9428 4.58739 79.5437C7.18824 82.1445 10.7158 83.6057 14.3939 83.6057H97.6051C101.283 83.6057 104.811 82.1445 107.412 79.5437C110.012 76.9428 111.474 73.4153 111.474 69.7372V14.2631C111.474 10.5849 110.012 7.05738 107.412 4.45653C104.811 1.85567 101.283 0.394531 97.6051 0.394531H14.3939Z" fill="#74F581"/>
<path d="M14.3936 24.6644C14.3936 23.7449 14.7588 22.863 15.4091 22.2128C16.0593 21.5626 16.9411 21.1973 17.8607 21.1973H31.7292C32.6488 21.1973 33.5306 21.5626 34.1808 22.2128C34.8311 22.863 35.1963 23.7449 35.1963 24.6644V31.5987C35.1963 32.5182 34.8311 33.4001 34.1808 34.0503C33.5306 34.7005 32.6488 35.0658 31.7292 35.0658H17.8607C16.9411 35.0658 16.0593 34.7005 15.4091 34.0503C14.7588 33.4001 14.3936 32.5182 14.3936 31.5987V24.6644ZM14.3936 45.4672C14.3936 44.5476 14.7588 43.6658 15.4091 43.0156C16.0593 42.3653 16.9411 42.0001 17.8607 42.0001H52.532C53.4515 42.0001 54.3334 42.3653 54.9836 43.0156C55.6338 43.6658 55.9991 44.5476 55.9991 45.4672C55.9991 46.3867 55.6338 47.2686 54.9836 47.9188C54.3334 48.569 53.4515 48.9343 52.532 48.9343H17.8607C16.9411 48.9343 16.0593 48.569 15.4091 47.9188C14.7588 47.2686 14.3936 46.3867 14.3936 45.4672ZM14.3936 59.3357C14.3936 58.4162 14.7588 57.5343 15.4091 56.8841C16.0593 56.2339 16.9411 55.8686 17.8607 55.8686H24.7949C25.7145 55.8686 26.5964 56.2339 27.2466 56.8841C27.8968 57.5343 28.2621 58.4162 28.2621 59.3357C28.2621 60.2553 27.8968 61.1371 27.2466 61.7873C26.5964 62.4376 25.7145 62.8028 24.7949 62.8028H17.8607C16.9411 62.8028 16.0593 62.4376 15.4091 61.7873C14.7588 61.1371 14.3936 60.2553 14.3936 59.3357ZM35.1963 59.3357C35.1963 58.4162 35.5616 57.5343 36.2118 56.8841C36.8621 56.2339 37.7439 55.8686 38.6635 55.8686H45.5977C46.5173 55.8686 47.3992 56.2339 48.0494 56.8841C48.6996 57.5343 49.0649 58.4162 49.0649 59.3357C49.0649 60.2553 48.6996 61.1371 48.0494 61.7873C47.3992 62.4376 46.5173 62.8028 45.5977 62.8028H38.6635C37.7439 62.8028 36.8621 62.4376 36.2118 61.7873C35.5616 61.1371 35.1963 60.2553 35.1963 59.3357ZM55.9991 59.3357C55.9991 58.4162 56.3644 57.5343 57.0146 56.8841C57.6648 56.2339 58.5467 55.8686 59.4663 55.8686H66.4005C67.3201 55.8686 68.2019 56.2339 68.8522 56.8841C69.5024 57.5343 69.8677 58.4162 69.8677 59.3357C69.8677 60.2553 69.5024 61.1371 68.8522 61.7873C68.2019 62.4376 67.3201 62.8028 66.4005 62.8028H59.4663C58.5467 62.8028 57.6648 62.4376 57.0146 61.7873C56.3644 61.1371 55.9991 60.2553 55.9991 59.3357ZM76.8019 59.3357C76.8019 58.4162 77.1672 57.5343 77.8174 56.8841C78.4676 56.2339 79.3495 55.8686 80.269 55.8686H87.2033C88.1228 55.8686 89.0047 56.2339 89.6549 56.8841C90.3052 57.5343 90.6704 58.4162 90.6704 59.3357C90.6704 60.2553 90.3052 61.1371 89.6549 61.7873C89.0047 62.4376 88.1228 62.8028 87.2033 62.8028H80.269C79.3495 62.8028 78.4676 62.4376 77.8174 61.7873C77.1672 61.1371 76.8019 60.2553 76.8019 59.3357Z" fill="#74F581"/>
</svg>
