<svg width="108" height="113" viewBox="0 0 108 113" fill="none" xmlns="http://www.w3.org/2000/svg">
<path d="M66.2038 9.89585C66.3723 9.68278 66.5812 9.50513 66.8186 9.37315C67.056 9.24116 67.3172 9.15744 67.5871 9.12682C67.857 9.09619 68.1303 9.11926 68.3912 9.1947C68.6521 9.27013 68.8956 9.39644 69.1075 9.56636L73.5557 13.1331L57.2909 33.8337H67.7689L79.9932 18.2815L90.3064 26.5436C90.5225 26.7167 90.7015 26.9315 90.8327 27.1752C90.9639 27.419 91.0446 27.6867 91.07 27.9624C91.0954 28.2381 91.0649 28.516 90.9804 28.7797C90.8959 29.0433 90.7591 29.2872 90.5783 29.4967L86.8385 33.8337H97.6048C99.0228 31.691 99.5884 29.0955 99.1906 26.557C98.7928 24.0186 97.4603 21.7206 95.4548 20.1143L74.2559 3.13707C73.1969 2.28919 71.9808 1.65892 70.6774 1.2825C69.3741 0.906076 68.0092 0.79091 66.6613 0.94362C65.3133 1.09633 64.0088 1.5139 62.8227 2.17235C61.6366 2.8308 60.5923 3.71713 59.7498 4.78043L36.7386 33.8337H47.2454L66.2038 9.89585ZM74.5936 70.902C73.5013 70.902 72.4536 71.3359 71.6812 72.1083C70.9088 72.8807 70.4749 73.9283 70.4749 75.0207C70.4749 76.113 70.9088 77.1607 71.6812 77.9331C72.4536 78.7055 73.5013 79.1394 74.5936 79.1394H86.9497C88.042 79.1394 89.0896 78.7055 89.8621 77.9331C90.6345 77.1607 91.0684 76.113 91.0684 75.0207C91.0684 73.9283 90.6345 72.8807 89.8621 72.1083C89.0896 71.3359 88.042 70.902 86.9497 70.902H74.5936ZM12.8131 21.4776C9.53609 21.4776 6.39327 22.7794 4.07605 25.0966C1.75883 27.4139 0.457031 30.5567 0.457031 33.8337V93.5548C0.457031 98.4704 2.40973 103.185 5.88556 106.66C9.36138 110.136 14.0756 112.089 18.9912 112.089H89.009C93.9246 112.089 98.6388 110.136 102.115 106.66C105.59 103.185 107.543 98.4704 107.543 93.5548V56.4866C107.543 51.571 105.59 46.8568 102.115 43.3809C98.6388 39.9051 93.9246 37.9524 89.009 37.9524H12.8131C11.7208 37.9524 10.6732 37.5185 9.90077 36.7461C9.12836 35.9737 8.69443 34.9261 8.69443 33.8337C8.69443 32.7414 9.12836 31.6938 9.90077 30.9214C10.6732 30.149 11.7208 29.715 12.8131 29.715H31.6768L38.2502 21.4776H12.8131ZM8.69443 93.5548V45.4896C9.98358 45.9427 11.3716 46.1898 12.8131 46.1898H89.009C91.7399 46.1898 94.3589 47.2746 96.2899 49.2057C98.221 51.1367 99.3058 53.7557 99.3058 56.4866V93.5548C99.3058 96.2857 98.221 98.9047 96.2899 100.836C94.3589 102.767 91.7399 103.852 89.009 103.852H18.9912C16.2603 103.852 13.6413 102.767 11.7103 100.836C9.77926 98.9047 8.69443 96.2857 8.69443 93.5548Z" fill="#74F581"/>
</svg>
